<svg width="40" height="40" viewBox="0 0 40 40" fill="none" xmlns="http://www.w3.org/2000/svg">
<path d="M19.2839 28.1637C14.7495 28.1637 11.0608 24.4749 11.0608 19.9406C11.0608 15.6864 14.2509 12.1687 18.4809 11.758C18.7518 11.731 19.0076 11.88 19.1193 12.1271C19.2315 12.3743 19.1743 12.6651 18.9768 12.8507C17.9456 13.8215 17.378 15.1311 17.378 16.5389C17.378 19.3352 19.653 21.6102 22.4492 21.6102C23.9741 21.6102 25.4036 20.9324 26.3721 19.7518C26.5443 19.5419 26.8314 19.4658 27.0839 19.5597C27.338 19.6546 27.5032 19.9007 27.4956 20.1716C27.3715 24.653 23.7642 28.1637 19.2839 28.1637ZM16.9501 13.3844C14.2267 14.3422 12.3283 16.9226 12.3283 19.9406C12.3283 23.7762 15.4483 26.8962 19.2839 26.8962C22.4961 26.8962 25.1775 24.762 25.9836 21.8028C24.9508 22.4984 23.7265 22.8788 22.4492 22.8788C18.9536 22.8788 16.1099 20.0356 16.1099 16.5395C16.1099 15.4106 16.4013 14.3325 16.9501 13.3844Z" fill="white"/>
<circle cx="19.5576" cy="20.2549" r="19" stroke="white"/>
</svg>
